# Blender 4.4.0
# www.blender.org
o fur_LOD0
v 0.177762 0.110825 -0.733748
v 0.276565 0.126094 -0.731565
v 0.270163 0.150911 -0.632136
v 0.171713 0.133672 -0.635384
v 0.111845 0.080872 -0.726395
v 0.211010 0.091600 -0.733561
v 0.213193 0.135123 -0.646140
v 0.114028 0.124395 -0.638974
v 0.035378 0.079352 -0.727025
v 0.133070 0.080785 -0.748337
v 0.152870 0.114877 -0.659324
v 0.055178 0.113444 -0.638012
v -0.044945 0.073744 -0.721177
v 0.050021 0.071753 -0.752440
v 0.080225 0.106788 -0.666605
v -0.014741 0.108779 -0.635342
v -0.095684 0.068865 -0.731229
v 0.003499 0.069439 -0.743976
v 0.015411 0.103811 -0.653719
v -0.083772 0.103237 -0.640972
v -0.166365 0.085221 -0.721789
v -0.066481 0.086579 -0.726411
v -0.062728 0.110023 -0.633828
v -0.162612 0.108665 -0.629206
v -0.253561 0.083992 -0.705684
v -0.153670 0.088654 -0.705388
v -0.155098 0.124077 -0.610688
v -0.254959 0.118838 -0.610151
v -0.334703 0.113434 -0.662150
v -0.242340 0.103178 -0.699081
v -0.201703 0.127206 -0.607713
v -0.293930 0.137526 -0.570462
v -0.395672 0.116969 -0.625821
v -0.297825 0.118644 -0.646391
v -0.276612 0.140580 -0.549506
v -0.374316 0.138643 -0.528287
v -0.435734 0.132808 -0.571064
v -0.349855 0.133240 -0.622295
v -0.296643 0.149179 -0.536981
v -0.382015 0.147723 -0.484927
v 0.241350 0.119763 -0.678164
v 0.339101 0.119917 -0.699251
v 0.357846 0.167830 -0.615887
v 0.260094 0.167676 -0.594799
v 0.306377 0.149556 -0.687420
v 0.401191 0.170857 -0.663827
v 0.371014 0.193437 -0.571543
v 0.276376 0.171469 -0.595230
v 0.366223 0.175362 -0.657451
v 0.451055 0.182311 -0.604960
v 0.399959 0.169793 -0.524218
v 0.315127 0.162844 -0.576709
v 0.294412 0.139259 -0.630944
v 0.389127 0.136977 -0.662941
v 0.419836 0.174995 -0.578412
v 0.325121 0.177277 -0.546414
v 0.256431 0.102384 -0.698402
v 0.349005 0.126728 -0.669461
v 0.312442 0.167523 -0.588378
v 0.219868 0.143178 -0.617319
v 0.187719 0.088180 -0.716149
v 0.282640 0.106242 -0.690387
v 0.251704 0.147641 -0.607364
v 0.156783 0.129579 -0.633126
v 0.121721 0.082531 -0.733272
v 0.218470 0.100045 -0.715026
v 0.196027 0.128973 -0.625019
v 0.099278 0.111459 -0.643265
v 0.062701 0.070533 -0.736097
v 0.161828 0.083695 -0.735321
v 0.157192 0.115717 -0.643675
v 0.058065 0.102556 -0.644451
v -0.022073 0.069376 -0.714910
v 0.074829 0.069660 -0.739605
v 0.098190 0.103784 -0.651434
v 0.001288 0.103500 -0.626739
v -0.087491 0.063049 -0.722780
v 0.011528 0.063211 -0.736751
v 0.024731 0.097588 -0.646668
v -0.074288 0.097425 -0.632697
v -0.148475 0.059968 -0.738351
v -0.049208 0.067794 -0.729144
v -0.060392 0.101188 -0.638475
v -0.159659 0.093363 -0.647682
v -0.236475 0.068882 -0.695001
v -0.140813 0.060954 -0.723035
v -0.111873 0.100622 -0.638582
v -0.207535 0.108550 -0.610548
v -0.296864 0.066104 -0.675885
v -0.199027 0.058689 -0.695198
v -0.178587 0.110422 -0.614311
v -0.276423 0.117836 -0.594999
v -0.349892 0.083324 -0.641120
v -0.252992 0.073669 -0.663862
v -0.228642 0.129306 -0.586426
v -0.325542 0.138961 -0.563684
v -0.408603 0.097555 -0.599708
v -0.321392 0.084626 -0.646900
v -0.272737 0.120493 -0.569917
v -0.359948 0.133423 -0.522725
v -0.452927 0.124311 -0.523560
v -0.390297 0.101245 -0.598027
v -0.312544 0.129381 -0.544357
v -0.375174 0.152447 -0.469890
v 0.275334 0.142738 -0.682932
v 0.176531 0.127469 -0.685115
v 0.212101 0.127503 -0.696727
v 0.112937 0.116775 -0.689561
v 0.142970 0.111972 -0.710706
v 0.045278 0.110539 -0.689395
v 0.065123 0.103412 -0.716399
v -0.029843 0.105403 -0.685135
v 0.009455 0.100766 -0.705724
v -0.089728 0.100192 -0.692977
v -0.064604 0.103695 -0.684945
v -0.164488 0.102336 -0.680323
v -0.154081 0.112937 -0.658813
v -0.253972 0.108274 -0.659109
v -0.219991 0.113648 -0.650639
v -0.312354 0.123904 -0.613709
v -0.286005 0.134502 -0.599417
v -0.383852 0.132827 -0.578848
v -0.322219 0.146195 -0.580527
v -0.408098 0.145763 -0.529296
v 0.348473 0.158015 -0.664445
v 0.250722 0.157861 -0.643358
v 0.386524 0.193622 -0.619838
v 0.291711 0.172320 -0.643432
v 0.425507 0.190193 -0.571465
v 0.340675 0.183245 -0.623956
v 0.404481 0.170128 -0.627552
v 0.309766 0.172409 -0.595555
v 0.330723 0.161267 -0.635796
v 0.238150 0.136922 -0.664736
v 0.267172 0.141082 -0.655752
v 0.172251 0.123021 -0.681513
v 0.207248 0.128650 -0.676899
v 0.110500 0.111136 -0.695145
v 0.159510 0.113848 -0.696374
v 0.060383 0.100686 -0.697150
v 0.086510 0.100863 -0.702396
v -0.010393 0.100579 -0.677700
v 0.018130 0.094541 -0.698586
v -0.080889 0.094378 -0.684614
v -0.054800 0.098632 -0.690686
v -0.154067 0.090807 -0.699893
v -0.126343 0.094929 -0.687685
v -0.222005 0.102857 -0.659650
v -0.188807 0.098697 -0.661631
v -0.286644 0.106111 -0.642318
v -0.240817 0.115629 -0.632020
v -0.337717 0.125284 -0.609278
v -0.297065 0.116701 -0.615285
v -0.384276 0.129630 -0.568093
v -0.351420 0.129455 -0.578068
v -0.414051 0.152520 -0.503601
vn -0.1643 0.9711 -0.1730
vn -0.1514 0.9566 -0.2492
vn -0.1514 0.9565 -0.2492
vn -0.1375 0.9361 -0.3238
vn -0.1168 0.9824 -0.1455
vn -0.1279 0.8895 -0.4387
vn -0.1279 0.8894 -0.4388
vn -0.1269 0.7122 -0.6904
vn -0.0259 0.9983 -0.0515
vn -0.0893 0.9338 -0.3466
vn -0.1442 0.7802 -0.6087
vn -0.0012 0.9977 -0.0673
vn -0.0966 0.9308 -0.3526
vn -0.1828 0.7754 -0.6045
vn -0.0131 0.9983 -0.0569
vn -0.0513 0.9326 -0.3573
vn -0.0846 0.7773 -0.6234
vn -0.0192 0.9923 -0.1221
vn -0.0249 0.9670 -0.2536
vn -0.0249 0.9671 -0.2533
vn -0.0302 0.9244 -0.3802
vn -0.0522 0.9727 -0.2263
vn -0.0465 0.9367 -0.3470
vn -0.0400 0.8859 -0.4622
vn -0.0127 0.9551 -0.2962
vn 0.0037 0.9661 -0.2583
vn 0.0038 0.9660 -0.2584
vn 0.0203 0.9753 -0.2201
vn -0.0441 0.9927 -0.1126
vn -0.0621 0.9762 -0.2077
vn -0.0795 0.9504 -0.3008
vn -0.0433 0.9981 -0.0430
vn -0.0880 0.9878 -0.1286
vn -0.0432 0.9981 -0.0430
vn -0.1319 0.9681 -0.2130
vn -0.0425 0.9809 -0.1901
vn -0.1033 0.8753 -0.4725
vn -0.1033 0.8752 -0.4725
vn -0.1543 0.6868 -0.7102
vn -0.2105 0.9755 -0.0639
vn -0.1477 0.9491 -0.2782
vn -0.2105 0.9755 -0.0638
vn -0.0774 0.8747 -0.4785
vn -0.2436 0.9314 0.2704
vn -0.1047 0.9938 0.0376
vn 0.0424 0.9793 -0.1981
vn -0.0084 0.9953 -0.0960
vn -0.1057 0.9196 -0.3784
vn -0.1929 0.7565 -0.6249
vn -0.1902 0.9611 -0.2001
vn -0.0815 0.8757 -0.4759
vn -0.0816 0.8758 -0.4758
vn 0.0349 0.7070 -0.7064
vn -0.1377 0.9747 -0.1761
vn -0.0446 0.8877 -0.4582
vn 0.0528 0.7157 -0.6964
vn -0.1701 0.9845 -0.0429
vn -0.1050 0.9344 -0.3403
vn -0.1050 0.9345 -0.3402
vn -0.0298 0.7953 -0.6055
vn -0.1312 0.9905 -0.0409
vn -0.1210 0.9315 -0.3432
vn -0.1210 0.9314 -0.3432
vn -0.0993 0.7839 -0.6128
vn -0.0165 0.9984 -0.0534
vn -0.0909 0.9339 -0.3458
vn -0.0909 0.9339 -0.3459
vn -0.1566 0.7804 -0.6053
vn -0.0097 0.9983 -0.0574
vn -0.0519 0.9326 -0.3571
vn -0.0519 0.9326 -0.3572
vn -0.0891 0.7774 -0.6227
vn -0.0732 0.9957 -0.0566
vn -0.0403 0.9328 -0.3582
vn -0.0403 0.9327 -0.3583
vn -0.0034 0.7799 -0.6259
vn 0.0446 0.9908 -0.1280
vn -0.0457 0.9096 -0.4130
vn -0.0457 0.9096 -0.4131
vn -0.1315 0.7411 -0.6584
vn 0.0250 0.9691 -0.2455
vn -0.0386 0.8519 -0.5223
vn -0.0385 0.8519 -0.5223
vn -0.0984 0.6543 -0.7498
vn 0.0263 0.9555 -0.2937
vn -0.0490 0.8272 -0.5598
vn -0.0489 0.8272 -0.5597
vn -0.1196 0.6220 -0.7739
vn 0.0790 0.9890 -0.1250
vn -0.0720 0.9201 -0.3851
vn -0.0720 0.9201 -0.3850
vn -0.2160 0.7636 -0.6085
vn 0.1522 0.9730 -0.1734
vn -0.0859 0.9290 -0.3600
vn -0.3159 0.7982 -0.5129
vt 0.990500 0.926500
vt 0.990500 0.959000
vt 0.925500 0.959000
vt 0.925500 0.926500
vt 0.990500 0.991500
vt 0.925500 0.991500
vt 0.990500 0.847500
vt 0.990500 0.880000
vt 0.925500 0.880000
vt 0.925500 0.847500
vt 0.990500 0.912500
vt 0.925500 0.912500
s 1
f 3/1/1 105/2/2 106/3/3 4/4/1
f 105/2/2 2/5/4 1/6/4 106/3/3
f 7/1/5 107/2/6 108/3/7 8/4/5
f 107/2/6 6/5/8 5/6/8 108/3/7
f 11/1/9 109/2/10 110/3/10 12/4/9
f 109/2/10 10/5/11 9/6/11 110/3/10
f 15/1/12 111/2/13 112/3/13 16/4/12
f 111/2/13 14/5/14 13/6/14 112/3/13
f 19/1/15 113/2/16 114/3/16 20/4/15
f 113/2/16 18/5/17 17/6/17 114/3/16
f 23/1/18 115/2/19 116/3/20 24/4/18
f 115/2/19 22/5/21 21/6/21 116/3/20
f 27/1/22 117/2/23 118/3/23 28/4/22
f 117/2/23 26/5/24 25/6/24 118/3/23
f 31/1/25 119/2/26 120/3/27 32/4/25
f 119/2/26 30/5/28 29/6/28 120/3/27
f 35/1/29 121/2/30 122/3/30 36/4/29
f 121/2/30 34/5/31 33/6/31 122/3/30
f 39/1/32 123/2/33 124/3/33 40/4/34
f 123/2/33 38/5/35 37/6/35 124/3/33
f 43/1/36 125/2/37 126/3/38 44/4/36
f 125/2/37 42/5/39 41/6/39 126/3/38
f 47/1/40 127/2/41 128/3/41 48/4/42
f 127/2/41 46/5/43 45/6/43 128/3/41
f 51/1/44 129/2/45 130/3/45 52/4/44
f 129/2/45 50/5/46 49/6/46 130/3/45
f 55/7/47 131/8/48 132/9/48 56/10/47
f 131/8/48 54/11/49 53/12/49 132/9/48
f 59/7/50 133/8/51 134/9/52 60/10/50
f 133/8/51 58/11/53 57/12/53 134/9/52
f 63/7/54 135/8/55 136/9/55 64/10/54
f 135/8/55 62/11/56 61/12/56 136/9/55
f 67/7/57 137/8/58 138/9/59 68/10/57
f 137/8/58 66/11/60 65/12/60 138/9/59
f 71/7/61 139/8/62 140/9/63 72/10/61
f 139/8/62 70/11/64 69/12/64 140/9/63
f 75/7/65 141/8/66 142/9/67 76/10/65
f 141/8/66 74/11/68 73/12/68 142/9/67
f 79/7/69 143/8/70 144/9/71 80/10/69
f 143/8/70 78/11/72 77/12/72 144/9/71
f 83/7/73 145/8/74 146/9/75 84/10/73
f 145/8/74 82/11/76 81/12/76 146/9/75
f 87/7/77 147/8/78 148/9/79 88/10/77
f 147/8/78 86/11/80 85/12/80 148/9/79
f 91/7/81 149/8/82 150/9/83 92/10/81
f 149/8/82 90/11/84 89/12/84 150/9/83
f 95/7/85 151/8/86 152/9/87 96/10/85
f 151/8/86 94/11/88 93/12/88 152/9/87
f 99/7/89 153/8/90 154/9/91 100/10/89
f 153/8/90 98/11/92 97/12/92 154/9/91
f 103/7/93 155/8/94 156/9/94 104/10/93
f 155/8/94 102/11/95 101/12/95 156/9/94
