# Blender 4.4.0
# www.blender.org
o vm_screen_LOD0
v 0.178411 1.861583 0.341643
v 0.293164 1.860305 0.341680
v 0.062364 1.859886 0.341731
v 0.400320 1.855191 0.341298
v -0.049657 1.854895 0.341292
v 0.415814 1.851047 0.341247
v -0.062363 1.851652 0.341288
v 0.421769 1.835717 0.341271
v -0.067962 1.838581 0.341429
v 0.427164 1.758244 0.341539
v -0.071578 1.759646 0.341343
v 0.429775 1.643060 0.341684
v -0.073223 1.644002 0.341750
v 0.426620 1.505993 0.341524
v -0.072342 1.508507 0.341505
v 0.421669 1.422214 0.341438
v -0.069321 1.424817 0.341081
v 0.415605 1.406232 0.341447
v -0.064912 1.408325 0.341317
v 0.393405 1.401737 0.341466
v -0.051174 1.402405 0.341347
v 0.294051 1.397633 0.341532
v 0.062364 1.397633 0.341532
v 0.178411 1.397090 0.341818
v 0.178411 1.820389 0.365184
v 0.293283 1.820632 0.363217
v 0.062908 1.820632 0.363217
v 0.178411 1.759380 0.375464
v 0.293349 1.759394 0.374578
v 0.062861 1.759394 0.374578
v 0.178411 1.644248 0.377145
v 0.293437 1.644044 0.376705
v 0.062799 1.644044 0.376705
v 0.178411 1.513743 0.376401
v 0.293594 1.513469 0.375755
v 0.062688 1.513469 0.375755
v 0.178411 1.443883 0.367391
v 0.293571 1.447376 0.366825
v 0.062704 1.447376 0.366825
v 0.375765 1.451263 0.361219
v 0.378204 1.511747 0.365210
v 0.379247 1.644051 0.366170
v 0.378430 1.759174 0.364652
v 0.380643 1.817873 0.356711
v -0.021839 1.820407 0.357408
v -0.020374 1.759289 0.366115
v -0.017197 1.644143 0.368529
v -0.016003 1.513544 0.367898
v -0.014602 1.451407 0.363313
vn -0.0001 0.4920 0.8706
vn 0.0016 0.3368 0.9416
vn 0.0446 0.3342 0.9414
vn 0.0016 0.0919 0.9958
vn 0.0556 0.0950 0.9939
vn -0.0000 0.0054 1.0000
vn 0.2727 0.0675 0.9597
vn 0.0625 0.0052 0.9980
vn 0.2828 0.0022 0.9592
vn 0.4364 0.0003 0.8998
vn 0.4126 0.0423 0.9099
vn -0.0000 -0.0682 0.9977
vn 0.0635 -0.0702 0.9955
vn 0.2762 -0.0477 0.9599
vn 0.4235 -0.0330 0.9053
vn 0.0498 -0.2926 0.9550
vn -0.0000 -0.3121 0.9500
vn -0.0000 -0.4721 0.8816
vn 0.1905 -0.1850 0.9641
vn 0.1008 -0.2869 0.9526
vn 0.0009 0.0002 1.0000
vn 0.2404 -0.1354 0.9612
vn 0.0308 -0.4370 0.8989
vn 0.2486 0.1198 0.9612
vn 0.0041 0.0032 1.0000
vn 0.1175 0.2669 0.9565
vn 0.1866 0.2155 0.9585
vn 0.0339 0.4627 0.8859
vn -0.0436 0.3314 0.9425
vn -0.0552 0.0986 0.9936
vn -0.0528 0.0060 0.9986
vn -0.0457 -0.0644 0.9969
vn -0.0331 -0.2994 0.9536
vn -0.2773 -0.1041 0.9551
vn 0.0044 0.0155 0.9999
vn -0.1395 -0.2448 0.9595
vn -0.0250 -0.4423 0.8965
vn -0.1811 -0.2030 0.9623
vn -0.4085 -0.0270 0.9124
vn -0.4308 0.0002 0.9024
vn -0.2644 -0.0405 0.9636
vn -0.2691 0.0029 0.9631
vn -0.2651 0.0761 0.9612
vn -0.1238 0.2724 0.9542
vn -0.0034 0.0122 0.9999
vn -0.2367 0.1129 0.9650
vn -0.4113 0.0406 0.9106
vn -0.1662 0.2287 0.9592
vn -0.0282 0.4701 0.8822
vt 0.500101 0.999477
vt 0.500101 0.854984
vt 0.709311 0.854984
vt 0.500101 0.731500
vt 0.709311 0.731500
vt 0.500101 0.500054
vt 0.879975 0.731500
vt 0.709311 0.500054
vt 0.879975 0.500054
vt 0.998405 0.500054
vt 0.998405 0.731500
vt 0.500101 0.244408
vt 0.709311 0.244408
vt 0.879975 0.244408
vt 0.998405 0.244408
vt 0.709311 0.123553
vt 0.500101 0.123553
vt 0.500101 0.000302
vt 0.879975 0.123553
vt 0.913980 0.000302
vt 0.998405 0.000302
vt 0.998405 0.064334
vt 0.709311 0.000302
vt 0.998405 0.929520
vt 0.998405 0.999477
vt 0.916418 0.999477
vt 0.879975 0.854984
vt 0.709311 0.999477
vt 0.285253 0.854984
vt 0.285253 0.731500
vt 0.285253 0.500054
vt 0.285253 0.244408
vt 0.285253 0.123553
vt 0.001010 0.068655
vt 0.001010 0.000302
vt 0.048312 0.000302
vt 0.285253 0.000302
vt 0.126731 0.123553
vt 0.001010 0.244408
vt 0.001010 0.500054
vt 0.126731 0.244408
vt 0.126731 0.500054
vt 0.126731 0.731500
vt 0.075289 0.999477
vt 0.001010 0.999477
vt 0.001010 0.932033
vt 0.001010 0.731500
vt 0.126731 0.854984
vt 0.285253 0.999477
s 1
f 1/1/1 25/2/2 26/3/3
f 26/3/3 25/2/2 28/4/4
f 29/5/5 28/4/4 31/6/6
f 43/7/7 29/5/5 32/8/8
f 42/9/9 12/10/10 10/11/11
f 32/8/8 31/6/6 34/12/12
f 42/9/9 32/8/8 35/13/13
f 41/14/14 14/15/15 12/10/10
f 38/16/16 35/13/13 34/12/12
f 38/16/16 37/17/17 24/18/18
f 14/15/15 41/14/14 40/19/19
f 20/20/20 18/21/21 16/22/22
f 22/23/23 20/20/20 40/19/19
f 41/14/14 35/13/13 38/16/16
f 8/24/24 6/25/25 4/26/26
f 44/27/27 43/7/7 10/11/11
f 29/5/5 43/7/7 44/27/27
f 44/27/27 4/26/26 2/28/28
f 27/29/29 25/2/2 1/1/1
f 25/2/2 27/29/29 30/30/30
f 31/6/6 28/4/4 30/30/30
f 34/12/12 31/6/6 33/31/31
f 34/12/12 36/32/32 39/33/33
f 24/18/18 37/17/17 39/33/33
f 17/34/34 19/35/35 21/36/36
f 23/37/37 39/33/33 49/38/38
f 15/39/39 17/34/34 49/38/38
f 49/38/38 39/33/33 36/32/32
f 13/40/40 15/39/39 48/41/41
f 48/41/41 36/32/32 33/31/31
f 13/40/40 47/42/42 46/43/43
f 47/42/42 33/31/31 30/30/30
f 46/43/43 30/30/30 27/29/29
f 5/44/44 7/45/45 9/46/46
f 11/47/47 46/43/43 45/48/48
f 45/48/48 27/29/29 3/49/49
f 26/3/3 2/28/28 1/1/1
f 28/4/4 29/5/5 26/3/3
f 31/6/6 32/8/8 29/5/5
f 32/8/8 42/9/9 43/7/7
f 10/11/11 43/7/7 42/9/9
f 34/12/12 35/13/13 32/8/8
f 35/13/13 41/14/14 42/9/9
f 12/10/10 42/9/9 41/14/14
f 34/12/12 37/17/17 38/16/16
f 24/18/18 22/23/23 38/16/16
f 40/19/19 16/22/22 14/15/15
f 16/22/22 40/19/19 20/20/20
f 40/19/19 38/16/16 22/23/23
f 38/16/16 40/19/19 41/14/14
f 4/26/26 44/27/27 8/24/24
f 10/11/11 8/24/24 44/27/27
f 44/27/27 26/3/3 29/5/5
f 2/28/28 26/3/3 44/27/27
f 1/1/1 3/49/49 27/29/29
f 30/30/30 28/4/4 25/2/2
f 30/30/30 33/31/31 31/6/6
f 33/31/31 36/32/32 34/12/12
f 39/33/33 37/17/17 34/12/12
f 39/33/33 23/37/37 24/18/18
f 21/36/36 49/38/38 17/34/34
f 49/38/38 21/36/36 23/37/37
f 49/38/38 48/41/41 15/39/39
f 36/32/32 48/41/41 49/38/38
f 48/41/41 47/42/42 13/40/40
f 33/31/31 47/42/42 48/41/41
f 46/43/43 11/47/47 13/40/40
f 30/30/30 46/43/43 47/42/42
f 27/29/29 45/48/48 46/43/43
f 9/46/46 45/48/48 5/44/44
f 45/48/48 9/46/46 11/47/47
f 3/49/49 5/44/44 45/48/48
