# Blender 4.4.0
# www.blender.org
o Tshirt_LOD0
v 0.025821 0.857208 0.023393
v 0.000009 0.855614 0.027329
v 0.000011 0.843753 0.034871
v -0.026854 0.844466 0.032399
v 0.050730 0.859777 0.012406
v 0.026875 0.844467 0.032332
v -0.056850 0.847380 0.017678
v -0.025804 0.857205 0.023436
v 0.066085 0.864680 -0.008975
v 0.056871 0.847395 0.017534
v -0.078632 0.852734 -0.008025
v -0.050712 0.859766 0.012483
v 0.078585 0.873075 -0.027396
v 0.078648 0.852811 -0.008212
v -0.092398 0.865526 -0.032013
v -0.066069 0.864626 -0.008884
v 0.099061 0.833045 0.006161
v -0.069669 0.817823 0.035280
v 0.069687 0.817841 0.034949
v -0.034577 0.810544 0.050484
v 0.000006 0.808158 0.050739
v 0.034590 0.810548 0.050330
v -0.041805 0.772031 0.063928
v 0.000007 0.769611 0.066536
v 0.041819 0.772031 0.063655
v 0.087407 0.783490 0.043680
v 0.127248 0.808513 0.014659
v -0.099044 0.832966 0.006568
v -0.127238 0.808451 0.015584
v 0.097285 0.746849 0.054797
v 0.053335 0.729703 0.074226
v -0.053313 0.729705 0.074558
v -0.087394 0.783485 0.044427
v 0.000011 0.725172 0.078605
v 0.044971 0.906130 -0.100428
v 0.077102 0.904458 -0.081808
v 0.083587 0.890497 -0.096230
v -0.049219 0.887698 -0.113504
v -0.083605 0.890203 -0.096239
v -0.077121 0.904381 -0.081838
v -0.000001 0.880148 -0.121505
v -0.044974 0.906101 -0.100453
v 0.000004 0.904244 -0.106506
v 0.049212 0.887914 -0.113511
v 0.087415 0.894514 -0.056226
v 0.092405 0.865698 -0.032138
v -0.099894 0.887651 -0.065698
v -0.078580 0.872959 -0.027326
v -0.087432 0.894375 -0.056227
v -0.119188 0.849572 -0.032912
v 0.157819 0.838842 -0.032652
v 0.119197 0.849845 -0.033224
v 0.099873 0.887904 -0.065705
v -0.122993 0.871140 -0.079223
v 0.123001 0.871709 -0.079311
v 0.154931 0.849883 -0.080561
v -0.154922 0.848902 -0.080229
v -0.157810 0.838442 -0.032049
v 0.000004 0.844191 -0.137008
v -0.057307 0.850067 -0.133865
v 0.057315 0.850685 -0.133900
v 0.066121 0.817205 -0.149262
v 0.000005 0.797624 -0.150228
v -0.066112 0.816316 -0.149259
v 0.100659 0.867436 -0.110685
v 0.120929 0.834348 -0.127681
v -0.100642 0.866685 -0.110599
v -0.120920 0.832895 -0.127506
v 0.000014 0.699116 0.085263
v 0.053339 0.703639 0.081232
v -0.053311 0.703642 0.081362
v -0.097267 0.746851 0.055908
vn 0.0014 0.4684 0.8835
vn 0.1694 0.5078 0.8447
vn 0.2178 0.5458 0.8091
vn 0.0009 0.5591 0.8291
vn -0.2160 0.5471 0.8087
vn -0.1664 0.5091 0.8444
vn 0.3703 0.6009 0.7084
vn 0.4547 0.5650 0.6885
vn -0.4534 0.5671 0.6877
vn -0.3678 0.6034 0.7076
vn 0.4326 0.6787 0.5935
vn 0.5511 0.5844 0.5956
vn -0.5504 0.5866 0.5942
vn -0.4316 0.6813 0.5912
vn 0.5157 0.6760 0.5263
vn 0.5630 0.5796 0.5891
vn -0.5637 0.5809 0.5872
vn -0.5173 0.6775 0.5229
vn 0.3333 0.5008 0.7988
vn 0.3606 0.6603 0.6588
vn -0.3572 0.6656 0.6553
vn -0.3276 0.5054 0.7983
vn 0.1680 0.4175 0.8930
vn -0.1626 0.4196 0.8930
vn 0.0022 0.3905 0.9206
vn -0.1602 0.3242 0.9323
vn 0.0029 0.2980 0.9546
vn 0.1684 0.3226 0.9314
vn 0.3165 0.3983 0.8609
vn 0.3399 0.6403 0.6888
vn -0.3074 0.4027 0.8622
vn -0.3354 0.6462 0.6855
vn 0.1726 0.2943 0.9400
vn 0.2916 0.3260 0.8993
vn 0.0030 0.2592 0.9658
vn -0.2795 0.3284 0.9022
vn -0.1634 0.2953 0.9413
vn 0.4043 0.6909 -0.5994
vn 0.1513 0.5390 -0.8286
vn 0.1819 0.6130 -0.7689
vn 0.5031 0.7437 -0.4402
vn -0.5067 0.7386 -0.4446
vn -0.1842 0.6096 -0.7710
vn -0.1553 0.5353 -0.8302
vn -0.4092 0.6844 -0.6035
vn -0.0008 0.5566 -0.8308
vn -0.0018 0.4771 -0.8789
vn 0.6214 0.7701 0.1442
vn 0.6633 0.6885 0.2933
vn -0.6664 0.6869 0.2898
vn -0.6258 0.7676 0.1384
vn 0.4076 0.7752 0.4826
vn -0.4089 0.7785 0.4762
vn 0.3658 0.8151 0.4492
vn -0.3671 0.8183 0.4423
vn 0.5530 0.8266 -0.1043
vn -0.5588 0.8215 -0.1135
vn 0.5000 0.8641 -0.0587
vn -0.5060 0.8597 -0.0701
vn -0.0023 0.3786 -0.9255
vn -0.1034 0.4448 -0.8897
vn 0.0978 0.4474 -0.8890
vn 0.0664 0.4077 -0.9107
vn -0.0020 0.3323 -0.9432
vn -0.0732 0.4064 -0.9107
vn 0.3733 0.6273 -0.6835
vn 0.3505 0.5878 -0.7292
vn -0.3794 0.6200 -0.6868
vn -0.3569 0.5806 -0.7318
vn 0.0547 0.2532 0.9659
vn -0.0508 0.2498 0.9670
vt 0.823100 0.260100
vt 0.843800 0.261400
vt 0.843100 0.278900
vt 0.823200 0.275700
vt 0.803200 0.279000
vt 0.802400 0.261500
vt 0.868400 0.272700
vt 0.862500 0.288000
vt 0.783900 0.288100
vt 0.777900 0.273000
vt 0.890800 0.295200
vt 0.878600 0.306700
vt 0.768100 0.307000
vt 0.755900 0.295800
vt 0.904600 0.324200
vt 0.891200 0.327700
vt 0.756000 0.328000
vt 0.742500 0.325000
vt 0.878700 0.233900
vt 0.905600 0.265500
vt 0.740700 0.266500
vt 0.767300 0.234400
vt 0.850000 0.218800
vt 0.796000 0.219000
vt 0.823000 0.216600
vt 0.789600 0.173200
vt 0.822800 0.169100
vt 0.856100 0.172900
vt 0.894200 0.194700
vt 0.927900 0.236300
vt 0.751500 0.195400
vt 0.718100 0.237800
vt 0.865500 0.122900
vt 0.902300 0.150400
vt 0.822700 0.116100
vt 0.743200 0.151200
vt 0.779800 0.123300
vt 0.910000 0.402500
vt 0.897500 0.439300
vt 0.881600 0.426600
vt 0.894400 0.393600
vt 0.754400 0.393600
vt 0.768000 0.425800
vt 0.752500 0.439300
vt 0.739000 0.403300
vt 0.789700 0.463600
vt 0.773200 0.485700
vt 0.878000 0.486700
vt 0.860900 0.465500
vt 0.912400 0.367400
vt 0.899000 0.366300
vt 0.749100 0.366700
vt 0.735600 0.368400
vt 0.927800 0.309900
vt 0.719200 0.311600
vt 0.958300 0.295500
vt 0.688500 0.298000
vt 0.937100 0.366300
vt 0.711000 0.368300
vt 0.965900 0.350300
vt 0.681800 0.353400
vt 0.749800 0.516400
vt 0.722800 0.465000
vt 0.927800 0.463600
vt 0.902200 0.516200
vt 0.955900 0.483500
vt 0.933000 0.553200
vt 0.719900 0.554900
vt 0.695200 0.486400
vt 0.935200 0.407900
vt 0.969000 0.417400
vt 0.713900 0.409800
vt 0.680400 0.420800
vt 0.822600 0.084600
vt 0.865300 0.091200
vt 0.779900 0.091700
s 1
f 3/1/1 6/2/2 1/3/3 2/4/4
f 2/4/4 8/5/5 4/6/6 3/1/1
f 6/2/2 10/7/7 5/8/8 1/3/3
f 8/5/5 12/9/9 7/10/10 4/6/6
f 10/7/7 14/11/11 9/12/12 5/8/8
f 12/9/9 16/13/13 11/14/14 7/10/10
f 14/11/11 46/15/15 13/16/16 9/12/12
f 16/13/13 48/17/17 15/18/18 11/14/14
f 10/7/7 19/19/19 17/20/20 14/11/11
f 11/14/14 28/21/21 18/22/22 7/10/10
f 6/2/2 22/23/23 19/19/19 10/7/7
f 7/10/10 18/22/22 20/24/24 4/6/6
f 4/6/6 20/24/24 21/25/25 3/1/1
f 3/1/1 21/25/25 22/23/23 6/2/2
f 23/26/26 24/27/27 21/25/25 20/24/24
f 22/23/23 21/25/25 24/27/27 25/28/28
f 22/23/23 25/28/28 26/29/29 19/19/19
f 17/20/20 19/19/19 26/29/29 27/30/30
f 18/22/22 33/31/31 23/26/26 20/24/24
f 29/32/32 33/31/31 18/22/22 28/21/21
f 25/28/28 31/33/33 30/34/34 26/29/29
f 24/27/27 34/35/35 31/33/33 25/28/28
f 33/31/31 72/36/36 32/37/37 23/26/26
f 23/26/26 32/37/37 34/35/35 24/27/27
f 37/38/38 44/39/39 35/40/40 36/41/41
f 40/42/42 42/43/43 38/44/44 39/45/45
f 42/43/43 43/46/46 41/47/47 38/44/44
f 44/39/39 41/48/47 43/49/46 35/40/40
f 46/15/15 53/50/48 45/51/49 13/16/16
f 45/51/49 53/50/48 37/38/38 36/41/41
f 48/17/17 49/52/50 47/53/51 15/18/18
f 40/42/42 39/45/45 47/53/51 49/52/50
f 17/20/20 52/54/52 46/15/15 14/11/11
f 11/14/14 15/18/18 50/55/53 28/21/21
f 17/20/20 27/30/30 51/56/54 52/54/52
f 50/55/53 58/57/55 29/32/32 28/21/21
f 52/54/52 55/58/56 53/50/48 46/15/15
f 15/18/18 47/53/51 54/59/57 50/55/53
f 52/54/52 51/56/54 56/60/58 55/58/56
f 57/61/59 58/57/55 50/55/53 54/59/57
f 38/44/44 41/47/47 59/62/60 60/63/61
f 61/64/62 59/65/60 41/48/47 44/39/39
f 62/66/63 63/67/64 59/65/60 61/64/62
f 60/63/61 59/62/60 63/68/64 64/69/65
f 55/58/56 65/70/66 37/38/38 53/50/48
f 56/60/58 66/71/67 65/70/66 55/58/56
f 37/38/38 65/70/66 61/64/62 44/39/39
f 61/64/62 65/70/66 66/71/67 62/66/63
f 47/53/51 39/45/45 67/72/68 54/59/57
f 54/59/57 67/72/68 68/73/69 57/61/59
f 38/44/44 60/63/61 67/72/68 39/45/45
f 64/69/65 68/73/69 67/72/68 60/63/61
f 31/33/70 34/35/70 69/74/70 70/75/70
f 34/35/71 32/37/71 71/76/71 69/74/71
